<?plantuml 1.2026.2?><svg xmlns="http://www.w3.org/2000/svg" xmlns:xlink="http://www.w3.org/1999/xlink" contentStyleType="text/css" data-diagram-type="DESCRIPTION" height="1580px" preserveAspectRatio="none" style="width:2868px;height:1580px;background:#FFFFFF;" version="1.1" viewBox="0 0 2868 1580" width="2868.75px" zoomAndPan="magnify"><title>DSA admin backend &#8212; use cases</title><defs/><g><g class="title" data-source-line="1"><text fill="#000000" font-family="sans-serif" font-size="17.5" font-weight="bold" lengthAdjust="spacing" textLength="322.4939" x="1264.6531" y="28.7439">DSA admin backend &#8212; use cases</text></g><!--cluster DSA admin backend--><g class="cluster" data-qualified-name="DSA admin backend" data-source-line="18" id="ent0003"><rect fill="none" height="1175" rx="3.125" ry="3.125" style="stroke:#181818;stroke-width:1.25;" width="2471.65" x="390.15" y="55.3711"/><text fill="#000000" font-family="sans-serif" font-size="16.25" font-weight="bold" lengthAdjust="spacing" textLength="183.0109" x="1534.4696" y="72.9547">DSA admin backend</text></g><!--entity COL_GAP--><g class="entity" data-qualified-name="DSA admin backend.COL_GAP" data-source-line="19" id="ent0004"><rect fill="none" height="25" rx="3.125" ry="3.125" style="stroke:none;stroke-width:0.625;" width="25" x="2719.0375" y="567.8711"/></g><!--entity UC_MAIL--><g class="entity" data-qualified-name="DSA admin backend.UC_MAIL" data-source-line="21" id="ent0005"><ellipse cx="528.3658" cy="271.6267" fill="#F8F8F8" rx="118.2158" ry="26.6432" style="stroke:#333333;stroke-width:0.625;"/><text fill="#000000" font-family="sans-serif" font-size="16.25" lengthAdjust="spacing" textLength="208.4808" x="424.1254" y="276.7098">Configure / monitor email</text></g><!--entity UC_LOGS--><g class="entity" data-qualified-name="DSA admin backend.UC_LOGS" data-source-line="22" id="ent0006"><ellipse cx="806.3529" cy="291.6242" fill="#F8F8F8" rx="88.5154" ry="20.7031" style="stroke:#333333;stroke-width:0.625;"/><text fill="#000000" font-family="sans-serif" font-size="16.25" lengthAdjust="spacing" textLength="140.6958" x="736.005" y="296.7072">View service logs</text></g><!--entity UC_STATS--><g class="entity" data-qualified-name="DSA admin backend.UC_STATS" data-source-line="23" id="ent0007"><ellipse cx="1044.8993" cy="504.116" fill="#F8F8F8" rx="78.7868" ry="18.7574" style="stroke:#333333;stroke-width:0.625;"/><text fill="#000000" font-family="sans-serif" font-size="16.25" lengthAdjust="spacing" textLength="116.5192" x="986.6398" y="509.199">View statistics</text></g><!--entity UC_NEWS--><g class="entity" data-qualified-name="DSA admin backend.UC_NEWS" data-source-line="24" id="ent0008"><ellipse cx="1289.9321" cy="636.625" fill="#F8F8F8" rx="76.9571" ry="18.3914" style="stroke:#333333;stroke-width:0.625;"/><text fill="#000000" font-family="sans-serif" font-size="16.25" lengthAdjust="spacing" textLength="111.7664" x="1234.0489" y="641.708">Manage news</text></g><!--entity UC_COMP--><g class="entity" data-qualified-name="DSA admin backend.UC_COMP" data-source-line="25" id="ent0009"><ellipse cx="1778.1" cy="914.1161" fill="#F8F8F8" rx="133.1625" ry="29.6325" style="stroke:#333333;stroke-width:0.625;"/><text fill="#000000" font-family="sans-serif" font-size="16.25" lengthAdjust="spacing" textLength="240.9253" x="1657.6374" y="919.1991">Manage companies / symbols</text></g><!--entity UC_USERS--><g class="entity" data-qualified-name="DSA admin backend.UC_USERS" data-source-line="26" id="ent0010"><ellipse cx="2266.2682" cy="1095.3672" fill="#F8F8F8" rx="77.6682" ry="18.5336" style="stroke:#333333;stroke-width:0.625;"/><text fill="#000000" font-family="sans-serif" font-size="16.25" lengthAdjust="spacing" textLength="113.623" x="2209.4567" y="1100.4502">Manage users</text></g><!--entity UC_DASH--><g class="entity" data-qualified-name="DSA admin backend.UC_DASH" data-source-line="27" id="ent0011"><ellipse cx="2731.5341" cy="1064.1254" fill="#F8F8F8" rx="110.2716" ry="25.0543" style="stroke:#333333;stroke-width:0.625;"/><text fill="#000000" font-family="sans-serif" font-size="16.25" lengthAdjust="spacing" textLength="190.8978" x="2636.0851" y="1069.2084">Open admin dashboard</text></g><!--entity UC_LOGIN--><g class="entity" data-qualified-name="DSA admin backend.UC_LOGIN" data-source-line="28" id="ent0012"><ellipse cx="2731.5435" cy="889.1273" fill="#F8F8F8" rx="85.3435" ry="20.0687" style="stroke:#333333;stroke-width:0.625;"/><text fill="#000000" font-family="sans-serif" font-size="16.25" lengthAdjust="spacing" textLength="132.9834" x="2665.0518" y="894.2103">Sign in to admin</text></g><!--entity Admin--><g class="entity" data-qualified-name="Admin" data-source-line="16" id="ent0002"><ellipse cx="170.7015" cy="875.2836" fill="#F1F1F1" rx="10" ry="10" style="stroke:#333333;stroke-width:0.625;"/><path d="M170.7015,885.2836 L170.7015,919.0336 M154.4515,895.2836 L186.9515,895.2836 M170.7015,919.0336 L154.4515,937.7836 M170.7015,919.0336 L186.9515,937.7836" fill="none" style="stroke:#333333;stroke-width:0.625;"/><text fill="#000000" font-family="sans-serif" font-size="16.25" lengthAdjust="spacing" textLength="163.103" x="89.15" y="954.7422">Administrator / staff</text></g><g class="entity" data-qualified-name="GMN42" data-source-line="65" id="ent0043"><path d="M7.5,1051.9961 L7.5,1121.2441 A0,0 0 0 0 7.5,1121.2441 L333.8989,1121.2441 A0,0 0 0 0 333.8989,1121.2441 L333.8989,1064.4961 L321.3989,1051.9961 L175.7,1051.9961 L170.7,959.1336 L165.7,1051.9961 L7.5,1051.9961 A0,0 0 0 0 7.5,1051.9961" fill="#FEFFDD" style="stroke:#181818;stroke-width:0.625;"/><path d="M321.3989,1051.9961 L321.3989,1064.4961 L333.8989,1064.4961 L321.3989,1051.9961" fill="#FEFFDD" style="stroke:#181818;stroke-width:0.625;"/><text fill="#000000" font-family="sans-serif" font-size="16.25" lengthAdjust="spacing" textLength="39.5062" x="15" y="1073.3297">Omit</text><text fill="#000000" font-family="sans-serif" font-size="16.25" font-weight="bold" lengthAdjust="spacing" textLength="159.9689" x="59.6716" y="1073.3297">Admin --&gt; Sign in</text><text fill="#000000" font-family="sans-serif" font-size="16.25" lengthAdjust="spacing" textLength="90.343" x="224.8059" y="1073.3297">if you want</text><text fill="#000000" font-family="sans-serif" font-size="16.25" lengthAdjust="spacing" textLength="270.8466" x="15" y="1092.2457">authentication only via &#171;include&#187;</text><text fill="#000000" font-family="sans-serif" font-size="16.25" lengthAdjust="spacing" textLength="176.7108" x="15" y="1111.1617">from other use cases.</text></g><!--link UC_MAIL to UC_LOGS--><!--link UC_LOGS to UC_STATS--><!--link UC_STATS to UC_NEWS--><!--link UC_NEWS to UC_COMP--><!--link UC_COMP to UC_USERS--><!--link UC_USERS to UC_DASH--><!--link UC_MAIL to COL_GAP--><!--link UC_LOGS to COL_GAP--><!--link UC_STATS to COL_GAP--><!--link UC_NEWS to COL_GAP--><!--link UC_COMP to COL_GAP--><!--link UC_USERS to COL_GAP--><!--link UC_DASH to COL_GAP--><!--link COL_GAP to UC_LOGIN--><!--link UC_DASH to UC_LOGIN--><g class="link" data-entity-1="ent0011" data-entity-2="ent0012" data-link-type="dependency" data-source-line="46" id="lnk27"><path d="M2731.5375,1038.6711 C2731.5375,1003.7836 2731.5375,949.2961 2731.5375,917.1836" fill="none" id="UC_DASH-to-UC_LOGIN" style="stroke:#181818;stroke-width:1.25;stroke-dasharray:8.75,8.75;"/><polygon fill="#181818" points="2731.5375,909.6836,2726.5375,920.9336,2731.5375,915.9336,2736.5375,920.9336,2731.5375,909.6836" style="stroke:#181818;stroke-width:1.25;"/><text fill="#000000" font-family="sans-serif" font-size="16.25" lengthAdjust="spacing" textLength="188.454" x="2623.4125" y="979.8422">&#171;include&#187; Authenticate</text></g><!--link UC_USERS to UC_LOGIN--><g class="link" data-entity-1="ent0010" data-entity-2="ent0012" data-link-type="dependency" data-source-line="47" id="lnk28"><path d="M2307.0375,1079.1961 C2367.55,1054.2836 2486.6125,1004.5961 2586.2625,959.1211 C2623.1875,942.2711 2658.1235,925.2136 2687.0985,910.7886" fill="none" id="UC_USERS-to-UC_LOGIN" style="stroke:#181818;stroke-width:1.25;stroke-dasharray:8.75,8.75;"/><polygon fill="#181818" points="2693.8125,907.4461,2681.5132,907.9839,2688.2175,910.2315,2685.9699,916.9359,2693.8125,907.4461" style="stroke:#181818;stroke-width:1.25;"/><text fill="#000000" font-family="sans-serif" font-size="16.25" lengthAdjust="spacing" textLength="188.454" x="2397.5125" y="954.2047">&#171;include&#187; Authenticate</text></g><!--link UC_COMP to UC_LOGIN--><g class="link" data-entity-1="ent0009" data-entity-2="ent0012" data-link-type="dependency" data-source-line="48" id="lnk29"><path d="M1910.575,910.6711 C2109.15,905.4461 2472.9026,895.8937 2638.8651,891.5187" fill="none" id="UC_COMP-to-UC_LOGIN" style="stroke:#181818;stroke-width:1.25;stroke-dasharray:8.75,8.75;"/><polygon fill="#181818" points="2646.3625,891.3211,2634.9846,886.6193,2640.1147,891.4858,2635.2482,896.6158,2646.3625,891.3211" style="stroke:#181818;stroke-width:1.25;"/><text fill="#000000" font-family="sans-serif" font-size="16.25" lengthAdjust="spacing" textLength="188.454" x="2172.5125" y="894.2172">&#171;include&#187; Authenticate</text></g><!--link UC_NEWS to UC_LOGIN--><g class="link" data-entity-1="ent0008" data-entity-2="ent0012" data-link-type="dependency" data-source-line="49" id="lnk30"><path d="M1353.025,647.4711 C1586.9125,688.5086 2409.2254,832.7873 2654.2754,875.7873" fill="none" id="UC_NEWS-to-UC_LOGIN" style="stroke:#181818;stroke-width:1.25;stroke-dasharray:8.75,8.75;"/><polygon fill="#181818" points="2661.6625,877.0836,2651.446,870.2145,2655.5066,876.0034,2649.7176,880.064,2661.6625,877.0836" style="stroke:#181818;stroke-width:1.25;"/><text fill="#000000" font-family="sans-serif" font-size="16.25" lengthAdjust="spacing" textLength="188.454" x="1947.5125" y="749.2172">&#171;include&#187; Authenticate</text></g><!--link UC_STATS to UC_LOGIN--><g class="link" data-entity-1="ent0007" data-entity-2="ent0012" data-link-type="dependency" data-source-line="50" id="lnk31"><path d="M1109.175,515.4961 C1213.425,534.3711 1428.3,573.4711 1609.9375,607.8711 C2046.6125,690.5711 2166.6375,677.6836 2586.2625,824.1211 C2624.075,837.3211 2658.872,853.2944 2687.572,867.4319" fill="none" id="UC_STATS-to-UC_LOGIN" style="stroke:#181818;stroke-width:1.25;stroke-dasharray:8.75,8.75;"/><polygon fill="#181818" points="2694.3,870.7461,2686.4174,861.2895,2688.6933,867.9843,2681.9985,870.2601,2694.3,870.7461" style="stroke:#181818;stroke-width:1.25;"/><text fill="#000000" font-family="sans-serif" font-size="16.25" lengthAdjust="spacing" textLength="188.454" x="1684.35" y="610.0047">&#171;include&#187; Authenticate</text></g><!--link UC_LOGS to UC_LOGIN--><g class="link" data-entity-1="ent0006" data-entity-2="ent0012" data-link-type="dependency" data-source-line="51" id="lnk32"><path d="M895.0375,291.6211 C939.525,291.6211 994.475,291.6211 1043.65,291.6211 C1043.65,291.6211 1043.65,291.6211 1516.1875,291.6211 C2051.8125,291.6211 2590.8672,760.494 2703.5922,864.169" fill="none" id="UC_LOGS-to-UC_LOGIN" style="stroke:#181818;stroke-width:1.25;stroke-dasharray:8.75,8.75;"/><polygon fill="#181818" points="2709.1125,869.2461,2704.2168,857.9503,2704.5123,865.0152,2697.4474,865.3107,2709.1125,869.2461" style="stroke:#181818;stroke-width:1.25;"/><text fill="#000000" font-family="sans-serif" font-size="16.25" lengthAdjust="spacing" textLength="188.454" x="1421.1875" y="286.7047">&#171;include&#187; Authenticate</text></g><!--link UC_MAIL to UC_LOGIN--><g class="link" data-entity-1="ent0005" data-entity-2="ent0012" data-link-type="dependency" data-source-line="52" id="lnk33"><path d="M559.0375,297.9461 C712.625,432.9461 1442.925,1045.6586 2171.2625,1160.3711 C2358.3,1189.8336 2449.3625,1194.9211 2586.2625,1064.1211 C2612.125,1039.4086 2600.1,1020.4711 2621.2625,991.6211 C2645.3875,958.7336 2675.073,932.3244 2698.948,913.1869" fill="none" id="UC_MAIL-to-UC_LOGIN" style="stroke:#181818;stroke-width:1.25;stroke-dasharray:8.75,8.75;"/><polygon fill="#181818" points="2704.8,908.4961,2692.8947,911.631,2699.9233,912.4051,2699.1492,919.4337,2704.8,908.4961" style="stroke:#181818;stroke-width:1.25;"/><text fill="#000000" font-family="sans-serif" font-size="16.25" lengthAdjust="spacing" textLength="188.454" x="1196.1875" y="760.2422">&#171;include&#187; Authenticate</text></g><!--link Admin to UC_LOGIN--><g class="link" data-entity-1="ent0002" data-entity-2="ent0012" data-link-type="dependency" data-source-line="55" id="lnk34"><path d="M252.675,941.8211 C282.3375,956.7086 313.5875,977.5586 333.9,1005.3711 C390.5875,1082.9836 336.65,1130.9211 380.15,1216.6211 C424.7875,1304.5586 428.5,1382.8711 527.1125,1382.8711 C527.1125,1382.8711 527.1125,1382.8711 2267.5125,1382.8711 C2431.875,1382.8711 2492.8375,1330.5961 2586.2625,1195.3711 C2638.4875,1119.7711 2577.7625,1072.5586 2621.2625,991.6211 C2640.2,956.3836 2669.7126,930.8272 2695.0876,912.5647" fill="none" id="Admin-to-UC_LOGIN" style="stroke:#181818;stroke-width:1.25;"/><polygon fill="#181818" points="2701.175,908.1836,2689.1232,910.697,2696.1022,911.8345,2694.9647,918.8135,2701.175,908.1836" style="stroke:#181818;stroke-width:1.25;"/></g><!--link Admin to UC_DASH--><g class="link" data-entity-1="ent0002" data-entity-2="ent0011" data-link-type="dependency" data-source-line="56" id="lnk35"><path d="M252.875,940.1836 C283.1125,954.9586 314.7375,976.1711 333.9,1005.3711 C382.975,1080.1961 343.7,1323.6461 380.15,1405.3711 C420.3125,1495.4461 428.5,1571.6211 527.1125,1571.6211 C527.1125,1571.6211 527.1125,1571.6211 2267.5125,1571.6211 C2431.025,1571.6211 2476.825,1509.3711 2586.2625,1387.8711 C2669.225,1295.7711 2709.0788,1155.3805 2723.0288,1096.668" fill="none" id="Admin-to-UC_DASH" style="stroke:#181818;stroke-width:1.25;"/><polygon fill="#181818" points="2724.7625,1089.3711,2717.2973,1099.1606,2723.3177,1095.4518,2727.0265,1101.4722,2724.7625,1089.3711" style="stroke:#181818;stroke-width:1.25;"/></g><!--link Admin to UC_USERS--><g class="link" data-entity-1="ent0002" data-entity-2="ent0010" data-link-type="dependency" data-source-line="57" id="lnk36"><path d="M252.7125,953.1461 C279.4625,968.2461 308.8,986.3211 333.9,1005.3711 C429.525,1077.9461 407.0625,1194.1211 527.1125,1194.1211 C527.1125,1194.1211 527.1125,1194.1211 1779.35,1194.1211 C1944.55,1194.1211 2128.0088,1140.9015 2212.9713,1113.1265" fill="none" id="Admin-to-UC_USERS" style="stroke:#181818;stroke-width:1.25;"/><polygon fill="#181818" points="2220.1,1110.7961,2207.8532,1109.5393,2214.1594,1112.7381,2210.9605,1119.0443,2220.1,1110.7961" style="stroke:#181818;stroke-width:1.25;"/></g><!--link Admin to UC_COMP--><g class="link" data-entity-1="ent0002" data-entity-2="ent0009" data-link-type="dependency" data-source-line="58" id="lnk37"><path d="M252.525,945.5961 C323.5,972.4336 430.3375,1005.3711 527.1125,1005.3711 C527.1125,1005.3711 527.1125,1005.3711 1291.1875,1005.3711 C1436.8125,1005.3711 1595.6342,967.2913 1690.9842,940.2663" fill="none" id="Admin-to-UC_COMP" style="stroke:#181818;stroke-width:1.25;"/><polygon fill="#181818" points="1698.2,938.2211,1686.0129,936.4783,1692.1869,939.9254,1688.7398,946.0993,1698.2,938.2211" style="stroke:#181818;stroke-width:1.25;"/></g><!--link Admin to UC_NEWS--><g class="link" data-entity-1="ent0002" data-entity-2="ent0008" data-link-type="dependency" data-source-line="59" id="lnk38"><path d="M252.8375,877.0586 C323.775,849.8961 430.4125,816.6211 527.1125,816.6211 C527.1125,816.6211 527.1125,816.6211 1046.15,816.6211 C1100.025,816.6211 1218.3307,705.8829 1265.0307,660.1204" fill="none" id="Admin-to-UC_NEWS" style="stroke:#181818;stroke-width:1.25;"/><polygon fill="#181818" points="1270.3875,654.8711,1258.8528,659.1738,1265.9235,659.2455,1265.8518,666.3162,1270.3875,654.8711" style="stroke:#181818;stroke-width:1.25;"/></g><!--link Admin to UC_STATS--><g class="link" data-entity-1="ent0002" data-entity-2="ent0007" data-link-type="dependency" data-source-line="60" id="lnk39"><path d="M218.5,864.3711 C256.3,828.1586 312.425,779.0461 368.9,746.6211 C581.8375,624.3711 859.9397,548.3277 979.7022,519.0402" fill="none" id="Admin-to-UC_STATS" style="stroke:#181818;stroke-width:1.25;"/><polygon fill="#181818" points="986.9875,517.2586,974.8718,515.0741,980.9164,518.7433,977.2473,524.7879,986.9875,517.2586" style="stroke:#181818;stroke-width:1.25;"/></g><!--link Admin to UC_LOGS--><g class="link" data-entity-1="ent0002" data-entity-2="ent0006" data-link-type="dependency" data-source-line="61" id="lnk40"><path d="M189.125,864.3586 C217.425,791.5336 279.775,650.6336 368.9,557.8711 C487.375,434.5586 667.8211,348.9263 753.1711,312.7013" fill="none" id="Admin-to-UC_LOGS" style="stroke:#181818;stroke-width:1.25;"/><polygon fill="#181818" points="760.075,309.7711,747.7657,309.5638,754.3217,312.2129,751.6726,318.769,760.075,309.7711" style="stroke:#181818;stroke-width:1.25;"/></g><!--link Admin to UC_MAIL--><g class="link" data-entity-1="ent0002" data-entity-2="ent0005" data-link-type="dependency" data-source-line="62" id="lnk41"><path d="M178.4125,864.3836 C194.325,763.3586 243.625,522.9586 368.9,369.1211 C395.5875,336.3461 429.6499,314.8782 463.1374,298.5032" fill="none" id="Admin-to-UC_MAIL" style="stroke:#181818;stroke-width:1.25;"/><polygon fill="#181818" points="469.875,295.2086,457.5722,295.6588,464.2603,297.9541,461.965,304.6423,469.875,295.2086" style="stroke:#181818;stroke-width:1.25;"/></g><?plantuml-src bLNTRjCm6BttKtpgxYfrCAO9DAPAeVjXKhjEf8CBX2Ot_f9QJUpATbOLD8c7u0bv4cmtQPFC89hSECVds3x7zXV3JOvm6KT0MS45p6coHC7WzyzVK6g4X6hKH2-vM5552s0h3YTlNZSHJ6cPcsifJCo_8voSDZg5PAXn1M_F6g2YOkd0ioPe9tDpmGy2y44gXceaSwdWwDG_3hLBovGi1Qjwhj-vbpmtHg69iJr_6-EPa1nJ0qQ2ujd20ECA4yEb86Ihx4Kk1QwDekxp5MX3qxG7L8Fl8SG9gCXiQBqNgVNyp3H3OQ07NZMQZXzlediucbdNsYxIzhtFkS3p1a2iglRV6qcHygnKQ6SlfE1k7LXGdlln7aQFa-Xst1HyvhW6ZUg99mYvp7HD74zlufT4GutrnvCTBPv5inPlGeNr00BNEyxTrPSG9P75YWgEsYMrAUOotob6qybzG66_rOxp45zzQWqxNQ6e8cLKB-QIAbQJBwFuOvCRyqo09ThDz8g6wzixbsWL5Go-BZXZABunkHQ3HZ1LAq2e8wcR0KgLIDKA4Ae0gbQ0KBklcm6Aznooue_le3vT8IyXHiTBYD8s4sAqtOGO7JSXYZFs3qPzQxgCplRwKOw7EnZEuUA2YoGl6Gw749LcOMyNJwZ1vieEKNYtXmXyW8S8jfjoYC9lz242VtR-Ks1hfAzqC1Zi1Mt8dyeMiZtABSWV_nRYRqmBsLwpxdGTn9Sx8gH1c4jZP04ohOenmBJW1lhzlQ2g2lq-y1GsieGrjVNL5kMzHrlkGOfy0q-SDdEmh5IvuIrJxNz-nyJz3ztyv0y0?></g></svg>